<?xml version="1.0" encoding="UTF-8"?>
<svg version="1.1" xmlns="http://www.w3.org/2000/svg" width="512" height="529">
<path d="M0 0 C46.07925923 37.38505937 57.47324384 141.93515506 63.1003418 195.390625 C64.37797132 208.13393664 65.15856164 220.80019139 65.203125 233.609375 C65.21014632 234.97671033 65.21723315 236.34404533 65.22438049 237.71138 C65.24378446 242.05759146 65.24881453 246.4037496 65.25 250.75 C65.25044186 251.49019756 65.25088371 252.23039513 65.25133896 252.99302292 C65.25827458 275.14012492 64.96613116 297.00800591 62 319 C61.83109421 320.32621563 61.6631499 321.65255402 61.49609375 322.97900391 C54.68059283 376.47264958 39.63438587 428.65994976 18 478 C17.6277832 478.86125488 17.25556641 479.72250977 16.87207031 480.60986328 C10.22866712 495.78797344 0.61958159 507.6362665 -14.99609375 514.2734375 C-29.68238718 519.77348365 -46.45059238 520.36411503 -61 514 C-62.39025391 513.41605469 -62.39025391 513.41605469 -63.80859375 512.8203125 C-77.82896941 506.098487 -86.65536091 494.25944053 -92 480 C-94.90948655 471.252399 -95.13113063 463.39226676 -94.3359375 454.28515625 C-90.83308254 413.16921279 -98.48160179 369.76457149 -112 331 C-112.28037109 330.19208008 -112.56074219 329.38416016 -112.84960938 328.55175781 C-120.58372922 306.58719892 -130.95221666 285.8978154 -143 266 C-143.03963867 266.81227051 -143.07927734 267.62454102 -143.12011719 268.46142578 C-146.14325435 328.04729231 -157.17028872 402.54488516 -203 446 C-213.60492488 455.19575258 -227.19173365 459.43951277 -241.140625 459.20703125 C-256.82773495 458.07121591 -270.40783584 451.69434703 -281 440 C-291.14830135 426.61456926 -295.06194924 413.41106405 -295.875 396.9375 C-298.58044061 349.54628829 -316.65245412 308.44464154 -348 273 C-348.72445312 272.1646875 -349.44890625 271.329375 -350.1953125 270.46875 C-359.93226646 259.40239642 -370.32237957 249.01060261 -382 240 C-383.31128958 238.97147102 -384.62248028 237.94281597 -385.93359375 236.9140625 C-398.14669313 227.39459658 -410.78346658 218.78612858 -424.09765625 210.88671875 C-435.93567269 203.19121143 -443.9661179 190.7673537 -447 177 C-448.47880122 158.82400316 -445.89232315 143.87078777 -433.96875 129.5625 C-423.26251829 118.0804544 -408.99804059 112.11471351 -393.375 111.5625 C-355.88552781 113.45928877 -318.71529913 148.82019779 -292.60302734 173.49853516 C-290.93400188 175.06181669 -289.2456879 176.60155646 -287.55078125 178.13671875 C-282.36141481 182.84417347 -277.27224332 187.52725103 -272.765625 192.91015625 C-270.43390681 195.67004393 -267.99887498 198.33288673 -265.5625 201 C-264.69753906 201.94875 -263.83257812 202.8975 -262.94140625 203.875 C-262.30074219 204.57625 -261.66007813 205.2775 -261 206 C-265.01943753 181.00412286 -273.97931079 156.8562163 -283.66113281 133.56396484 C-289.75550309 118.83398687 -291.16005697 104.2785466 -285.26757812 89.11523438 C-278.70057451 73.94970805 -269.045773 64.89454572 -253.99609375 58.0078125 C-245.32317057 55.09045373 -236.83044355 54.62719249 -227.71508789 54.62939453 C-225.70046892 54.62502811 -223.68806107 54.58860491 -221.67382812 54.55078125 C-190.77058985 54.45966605 -163.54966942 79.00070406 -141 98 C-140.22438721 98.6482373 -140.22438721 98.6482373 -139.43310547 99.30957031 C-123.47638298 112.66409064 -107.4475739 126.83174882 -93.9453125 142.71484375 C-92.37529669 144.55913943 -90.78570186 146.37872403 -89.1796875 148.19140625 C-76.07866371 163.03452304 -64.25150936 178.7203436 -53 195 C-56.62506186 152.93678221 -68.74533894 110.31610954 -86.42114258 72.11621094 C-93.18432891 57.42929885 -94.90386784 42.45592075 -89.99609375 26.796875 C-83.23216655 9.38478517 -71.15537734 -1.66398529 -54.390625 -9.16796875 C-36.19474704 -15.3395006 -15.27751412 -10.87658413 0 0 Z " fill="#DA3A4D" transform="translate(447,11)"/>
<path d="M0 0 C46.07925923 37.38505937 57.47324384 141.93515506 63.1003418 195.390625 C64.37797132 208.13393664 65.15856164 220.80019139 65.203125 233.609375 C65.21014632 234.97671033 65.21723315 236.34404533 65.22438049 237.71138 C65.24378446 242.05759146 65.24881453 246.4037496 65.25 250.75 C65.25066278 251.86029634 65.25066278 251.86029634 65.25133896 252.99302292 C65.25827458 275.14012492 64.96613116 297.00800591 62 319 C61.83109421 320.32621563 61.6631499 321.65255402 61.49609375 322.97900391 C54.68059283 376.47264958 39.63438587 428.65994976 18 478 C17.6277832 478.86125488 17.25556641 479.72250977 16.87207031 480.60986328 C10.22866712 495.78797344 0.61958159 507.6362665 -14.99609375 514.2734375 C-29.68238718 519.77348365 -46.45059238 520.36411503 -61 514 C-62.39025391 513.41605469 -62.39025391 513.41605469 -63.80859375 512.8203125 C-77.82896941 506.098487 -86.65536091 494.25944053 -92 480 C-97.87789375 462.32764841 -93.87244916 447.14080668 -86.5 430.75 C-78.24014495 412.02611942 -70.4947464 392.91789956 -65.52832031 373.03320312 C-64.98938601 370.95915282 -64.39164887 368.91110605 -63.7734375 366.859375 C-60.05193562 354.39341516 -57.79595876 341.73177818 -55.54711914 328.92919922 C-55.08402887 326.44987878 -54.54714874 324.016507 -53.953125 321.56640625 C-52.55542771 315.45643266 -52.05373726 309.22758284 -51.4375 303 C-51.31181641 301.79988281 -51.18613281 300.59976562 -51.05664062 299.36328125 C-49.3373081 282.4220048 -48.76027159 265.58252768 -48.75 248.5625 C-48.74932526 247.5467691 -48.74865051 246.53103821 -48.74795532 245.48452759 C-48.76329337 230.89345441 -49.23066064 216.67630113 -51.49951172 202.23730469 C-51.96270473 199.24123672 -52.38341218 196.24160383 -52.78968811 193.23735046 C-58.47644086 151.27203145 -69.13363853 110.56552634 -86.62475586 71.91259766 C-93.17953989 57.26285562 -94.86566019 42.33401305 -89.99609375 26.796875 C-83.23216655 9.38478517 -71.15537734 -1.66398529 -54.390625 -9.16796875 C-36.19474704 -15.3395006 -15.27751412 -10.87658413 0 0 Z " fill="#31D382" transform="translate(447,11)"/>
<path d="M0 0 C15.24531878 10.87045915 29.78976458 22.63855598 43.39697266 35.49853516 C45.06599812 37.06181669 46.7543121 38.60155646 48.44921875 40.13671875 C53.62255596 44.82956477 58.71180923 49.4866041 63.1796875 54.875 C64.6498096 56.59119404 66.19349256 58.24420754 67.7578125 59.875 C68.25071777 60.390625 68.74362305 60.90625 69.25146484 61.4375 C70.21910875 62.44644771 71.19546928 63.44713998 72.18212891 64.4375 C78.65937195 71.26004151 79.57189727 79.17030788 80.625 88.1875 C80.74617187 89.13947266 80.86734375 90.09144531 80.9921875 91.07226562 C82.59206271 104.01908189 83.23641295 116.90169882 83.25 129.9375 C83.25133942 130.70324341 83.25267883 131.46898682 83.25405884 132.25793457 C83.24952209 144.27688206 82.57411768 155.94781673 80.40136719 167.79541016 C80.03477991 169.80896436 79.72157297 171.83204985 79.4140625 173.85546875 C75.62228929 196.43375467 65.67477716 217.68144966 53.0625 236.625 C45.41669545 248.12790094 43.10851786 259.30624978 44 273 C44.65478934 276.01347799 45.45633783 278.87278814 46.44140625 281.79296875 C47 284 47 284 46 287 C41.25405561 277.00126279 40.10143298 266.92480705 39.71484375 256.00146484 C38.06609783 210.09643578 18.08079146 169.01232347 -12 135 C-12.72445312 134.1646875 -13.44890625 133.329375 -14.1953125 132.46875 C-23.93226646 121.40239642 -34.32237957 111.01060261 -46 102 C-47.31128958 100.97147102 -48.62248028 99.94281597 -49.93359375 98.9140625 C-62.14669313 89.39459658 -74.78346658 80.78612858 -88.09765625 72.88671875 C-99.93567269 65.19121143 -107.9661179 52.7673537 -111 39 C-112.47880122 20.82400316 -109.89232315 5.87078777 -97.96875 -8.4375 C-67.4688678 -41.14751859 -29.93351449 -21.05032471 0 0 Z " fill="#51ADD8" transform="translate(111,149)"/>
<path d="M0 0 C35.43718746 -1.34713701 61.97965695 21.07647692 88 43 C88.5170752 43.4321582 89.03415039 43.86431641 89.56689453 44.30957031 C105.52361702 57.66409064 121.5524261 71.83174882 135.0546875 87.71484375 C136.62470331 89.55913943 138.21429814 91.37872403 139.8203125 93.19140625 C151.06041782 105.92464931 161.50499416 119.21214694 171.25 133.125 C171.79914063 133.89424805 172.34828125 134.66349609 172.9140625 135.45605469 C173.42195312 136.19500977 173.92984375 136.93396484 174.453125 137.6953125 C174.89817383 138.33484863 175.34322266 138.97438477 175.80175781 139.63330078 C178.84562025 145.64536323 179.46842014 152.47866774 180.109375 159.1015625 C180.19346619 159.96431793 180.27755737 160.82707336 180.36419678 161.7159729 C181.27800481 171.92987014 181.30507432 182.12796211 181.25 192.375 C181.24756287 193.37114319 181.24512573 194.36728638 181.24261475 195.39361572 C181.19423551 212.33345425 180.60553884 229.13037406 179 246 C178.88785156 247.22106445 178.88785156 247.22106445 178.7734375 248.46679688 C177.772175 258.93369839 175.67351636 269.16279815 173.5234375 279.43994141 C173.01038167 281.94922472 172.53068955 284.46246204 172.0625 286.98046875 C169.91820009 298.40773 167.0761731 309.50222596 163.71289062 320.63085938 C163.0894045 322.70288312 162.48592162 324.77913184 161.890625 326.859375 C156.26858587 345.84394191 148.79156778 364.49963551 140.72949219 382.56713867 C139.04795087 386.36390255 137.55317437 389.84281078 137 394 C136.67 394 136.34 394 136 394 C135.95512451 393.01531738 135.91024902 392.03063477 135.86401367 391.01611328 C132.94683193 328.09418394 122.11592409 266.60446224 86.86328125 212.94921875 C84.37238778 209.00660959 83.85072978 206.09295948 83.60546875 201.5234375 C83.50625122 199.82985107 83.50625122 199.82985107 83.4050293 198.10205078 C83.33324463 196.87212402 83.26145996 195.64219727 83.1875 194.375 C81.67340043 170.94847406 79.24918586 147.64416512 73.67529297 124.79980469 C72.96243315 121.84424561 72.29305281 118.88092753 71.62890625 115.9140625 C58.97989097 56.31812752 58.97989097 56.31812752 23.71875 9.68359375 C16.22702653 5.04432246 8.565898 2.91319549 0 1 C0 0.67 0 0.34 0 0 Z " fill="#FEE066" transform="translate(218,66)"/>
</svg>
